<?xml version="1.0" encoding="utf-8"?>
<svg version="1.1" id="Layer_1" xmlns="http://www.w3.org/2000/svg" x="0px" y="0px" width="100%" viewBox="0 0 572 584" enable-background="new 0 0 572 584">
  <path fill="#39AFA4" opacity="1.000000" stroke="none" d=" M573.000000,360.531342 C572.665039,358.293030 572.058228,355.587036 572.048584,352.878906 C572.024597,346.117035 572.271851,339.354156 572.705078,332.295837 C573.000000,341.354218 573.000000,350.708466 573.000000,360.531342 z"/>
  <path fill="#91CFC9" opacity="1.000000" stroke="none" d=" M573.000000,227.531372 C572.770447,220.167007 572.540833,212.334015 572.655640,204.250519 C573.000000,211.687576 573.000000,219.375168 573.000000,227.531372 z"/>
  <path fill="#EFF4F1" opacity="1.000000" stroke="none" d="M 15.016 188.127 C 12.489 152.433 28.981 126.046 56.13 105.173 C 89.473 79.542 127.889 65.769 168.776 58.055 C 205.757 51.077 243.089 49.667 280.49 52.547 C 321.891 55.733 362.267 63.736 399.539 83.192 C 423.236 95.561 445.513 109.868 460.623 132.805 C 468.737 145.118 473.905 158.654 474.561 173.491 C 474.786 178.591 477.084 179.665 481.35 179.84 C 510.729 181.055 533.883 194.316 551.419 217.358 C 559.378 227.814 563.712 240.015 563.322 253.476 C 563.102 261.072 563.203 268.714 562.371 276.246 C 559.487 302.366 545.222 321.476 524.283 336.142 C 508.21 347.403 490.702 355.423 470.917 357.141 C 465.26 357.632 459.421 356.724 453.736 355.949 C 449.57 355.381 447.517 356.724 445.872 360.589 C 443.64 365.84 440.566 370.733 437.301 376.504 C 420.554 398.401 404.364 419.576 381.656 434.986 C 378.93 434.152 376.578 432.519 374.413 432.74 C 370.824 433.105 367.37 434.709 363.838 435.713 C 339.848 442.543 316.279 450.701 290.445 447.633 C 260.528 444.08 231.545 437.473 204.441 424.327 C 166.143 405.749 135.605 378.105 111.941 342.715 C 95.509 318.138 83.813 291.448 76.599 262.92 C 75.016 256.663 72.704 253.268 67.135 250.262 C 42.603 237.022 25.479 217.34 17.24 190.368 C 16.969 189.477 15.777 188.867 15.016 188.127 M 288.092 85.846 C 261.001 82.943 233.798 81.054 206.834 85.828 C 182.724 90.1 158.506 94.623 135.048 101.473 C 110.118 108.754 87.077 120.517 69.52 140.888 C 54.017 158.88 51.532 183.211 64.429 201.73 C 74.705 216.487 87.918 228.018 104.53 235.475 C 151.505 256.567 200.851 266.201 252.185 265.823 C 300.382 265.47 346.658 255.986 389.767 233.957 C 408.381 224.444 422.99 210.162 431.349 190.488 C 437.161 176.806 435.259 163.394 427.301 151.323 C 411.63 127.557 388.412 113.745 362.497 103.557 C 338.885 94.278 314.097 90.197 288.092 85.846 M 522.873 247.918 C 513.334 229.09 497.182 221.605 476.956 220.597 C 476.263 236.074 476.16 251.062 474.771 265.928 C 473.372 280.907 470.696 295.767 468.569 310.766 C 486.985 313.699 501.511 306.802 514.116 294.164 C 525.908 282.341 529.708 264.549 522.873 247.918 Z"/>
  <path fill="#034D4F" opacity="1.000000" stroke="none" d="M 382.112 435.018 C 404.364 419.576 420.554 398.401 437.128 376.942 C 444.516 384.692 452.921 391.928 458.135 400.999 C 463.091 409.618 468.308 413.687 478.192 412.697 C 489.389 411.576 500.666 411.202 511.918 410.763 C 513.655 410.696 515.932 411.562 517.131 412.799 C 523.658 419.54 522.275 431.166 513.543 434.854 C 505.232 438.362 496.093 440.447 487.116 441.676 C 479.681 442.69 471.949 441.41 464.35 441.466 C 462.675 441.478 460.093 442.383 459.474 443.638 C 448.489 465.95 429.383 479.511 408.184 490.263 C 383.091 502.993 356.508 511.243 328.862 517.352 C 294.755 524.887 260.553 527.204 225.935 526.362 C 194.227 525.59 163.352 519.482 132.942 510.718 C 103.661 502.276 75.943 490.655 52.716 470.348 C 43.506 462.295 34.945 453.358 30.899 441.38 C 24.84 423.442 28.055 406.774 39.275 391.788 C 43.252 386.478 48.314 381.98 53.679 377.075 C 65.424 390.323 75.636 404.312 87.471 416.758 C 117.7 448.549 154.448 469.368 197.345 479.192 C 233.346 487.436 269.06 487.538 304.603 476.549 C 333.164 467.72 359.542 454.96 382.112 435.018 Z"/>
  <path fill="#C6D4E0" opacity="1.000000" stroke="none" d="M 381.656 434.986 C 359.542 454.96 333.164 467.72 304.603 476.549 C 269.06 487.538 233.346 487.436 197.345 479.192 C 154.448 469.368 117.7 448.549 87.471 416.758 C 75.636 404.312 65.424 390.323 54.073 376.805 C 41.527 354.764 30.697 332.444 24.072 308.187 C 17.709 284.9 13.65 261.457 14.443 237.206 C 14.966 221.286 14.63 205.335 14.845 188.763 C 15.777 188.867 16.969 189.477 17.24 190.368 C 25.479 217.34 42.603 237.022 67.135 250.262 C 72.704 253.268 75.016 256.663 76.599 262.92 C 83.813 291.448 95.509 318.138 111.941 342.715 C 135.605 378.105 166.143 405.749 204.441 424.327 C 231.545 437.473 260.528 444.08 290.445 447.633 C 316.279 450.701 339.848 442.543 363.838 435.713 C 367.37 434.709 370.824 433.105 374.413 432.74 C 376.578 432.519 378.93 434.152 381.656 434.986 Z"/>
  <path fill="#034D4F" opacity="1.000000" stroke="none" d="M 288.703 85.893 C 314.097 90.197 338.885 94.278 362.497 103.557 C 388.412 113.745 411.63 127.557 427.301 151.323 C 435.259 163.394 437.161 176.806 431.349 190.488 C 422.99 210.162 408.381 224.444 389.767 233.957 C 346.658 255.986 300.382 265.47 252.185 265.823 C 200.851 266.201 151.505 256.567 104.53 235.475 C 87.918 228.018 74.705 216.487 64.429 201.73 C 51.532 183.211 54.017 158.88 69.52 140.888 C 87.077 120.517 110.118 108.754 135.048 101.473 C 158.506 94.623 182.724 90.1 206.834 85.828 C 233.798 81.054 261.001 82.943 288.703 85.893 M 278.468 217.278 C 283.931 214.526 289.503 211.966 294.838 208.984 C 312.081 199.346 326.294 187.339 330.309 166.391 C 333.077 151.953 327.306 135.32 315.41 127.638 C 315.874 137.541 311.688 145.056 305.346 152.326 C 296.107 162.919 283.984 168.054 271.496 172.702 C 252.355 179.828 232.658 185.659 215.767 197.74 C 207.972 203.316 204.362 211.356 206.198 220.451 C 207.885 228.807 216.475 229.052 223.08 231.101 C 224.347 231.492 225.83 231.225 227.212 231.206 C 245.137 230.962 261.286 224.244 278.468 217.278 M 158.584 195.465 C 159.305 205.224 163.151 213.653 169.119 222.099 C 170.433 218.999 171.576 216.99 172.153 214.827 C 177.57 194.515 190.937 182.543 210.475 175.522 C 229.645 168.633 248.205 160.052 267.032 152.209 C 282.709 145.678 286.74 129.032 277.566 116.597 C 277.117 116.52 276.667 116.378 276.218 116.376 C 240.947 116.33 209.394 127.642 180.635 147.579 C 164.307 158.898 156.273 174.075 158.584 195.465 Z"/>
  <path fill="#32AB97" opacity="1.000000" stroke="none" d="M 523.108 248.403 C 529.708 264.549 525.908 282.341 514.116 294.164 C 501.511 306.802 486.985 313.699 468.569 310.766 C 470.696 295.767 473.372 280.907 474.771 265.928 C 476.16 251.062 476.263 236.074 476.956 220.597 C 497.182 221.605 513.334 229.09 523.108 248.403 Z"/>
  <path fill="#EFF3F0" opacity="1.000000" stroke="none" d="M 277.937 217.353 C 261.286 224.244 245.137 230.962 227.212 231.206 C 225.83 231.225 224.347 231.492 223.08 231.101 C 216.475 229.052 207.885 228.807 206.198 220.451 C 204.362 211.356 207.972 203.316 215.767 197.74 C 232.658 185.659 252.355 179.828 271.496 172.702 C 283.984 168.054 296.107 162.919 305.346 152.326 C 311.688 145.056 315.874 137.541 315.41 127.638 C 327.306 135.32 333.077 151.953 330.309 166.391 C 326.294 187.339 312.081 199.346 294.838 208.984 C 289.503 211.966 283.931 214.526 277.937 217.353 Z"/>
  <path fill="#EFF3F0" opacity="1.000000" stroke="none" d="M 158.544 194.817 C 156.273 174.075 164.307 158.898 180.635 147.579 C 209.394 127.642 240.947 116.33 276.218 116.376 C 276.667 116.378 277.117 116.52 277.566 116.6 C 286.74 129.032 282.709 145.678 267.032 152.209 C 248.205 160.052 229.645 168.633 210.475 175.522 C 190.937 182.543 177.57 194.515 172.153 214.827 C 171.576 216.99 170.433 218.999 169.119 222.099 C 163.151 213.653 159.305 205.224 158.544 194.817 Z"/>
</svg>